# xmcd CD database file
#
# Track frame offsets:
#	150
#	10297
#	22537
#	34324
#	46539
#	60582
#	72019
#	84870
#	95332
#	106132
#	114671
#	128203
#	140156
#	152310
#	161942
#
# Disc length: 2312 seconds
#
# Revision: 1
# Processed by: cddbd v1.5.2PL0 Copyright (c) Steve Scherf et al.
# Submitted via: CDex 1.70beta2
#
DISCID=b009060f
DTITLE=Various Artist - The Country Box [CD6)
DYEAR=1900
DGENRE=Country
TTITLE0=Porter Wagoner - Green Green Grass Of Home
TTITLE1=Sandy Posey - Single Girl
TTITLE2=Conway Twitty - Linda On My Mind
TTITLE3=Merle Haggard - The Bottle Let Me Down
TTITLE4=Lynn Anderson - Cry
TTITLE5=Kitty Wells - Heartbreak USA
TTITLE6=Jim Ed Brown - Morning
TTITLE7=Hank Locklin - Let Me Be The One
TTITLE8=Faron Young - I Miss You Already
TTITLE9=Bill Phillips - Little Boy Sad
TTITLE10=Johnny Paycheck - Someone To Give My Love To
TTITLE11=Wilma Burgess - Misty Blue
TTITLE12=Jack Scott - Burning Bridges
TTITLE13=Dave Dudley - Truck Driving Son Of A Gun
TTITLE14=Don Gibson - I Can't Stop Loving You
EXTD=
EXTT0=
EXTT1=
EXTT2=
EXTT3=
EXTT4=
EXTT5=
EXTT6=
EXTT7=
EXTT8=
EXTT9=
EXTT10=
EXTT11=
EXTT12=
EXTT13=
EXTT14=
PLAYORDER=
